<svg width="97" height="19" viewBox="0 0 97 19" fill="none" xmlns="http://www.w3.org/2000/svg">
<path d="M3.2469 19H0.00799942L0 0L3.2389 3.09802L3.2469 19Z" fill="#250D53"/>
<path d="M15.8285 18.832H12.8837V17.457C12.0771 18.484 11.0775 19 9.88881 19C8.70011 19 7.70051 18.652 6.89391 17.957C6.08721 17.262 5.68201 16.332 5.68201 15.168C5.68201 14.004 6.09881 13.136 6.93251 12.558C7.76611 11.98 8.90851 11.691 10.3558 11.691H12.6946V11.628C12.6946 10.417 12.0616 9.81201 10.7919 9.81201C10.2477 9.81201 9.67651 9.92101 9.07061 10.14C8.46471 10.359 7.95521 10.628 7.53841 10.957L6.13741 8.90601C7.61171 7.82001 9.29441 7.27698 11.1894 7.27698C12.5518 7.27698 13.6672 7.62001 14.5317 8.31201C15.3962 9.00301 15.8285 10.093 15.8285 11.585V18.832ZM12.6753 14.504V13.953H10.7108C9.45651 13.953 8.83131 14.347 8.83131 15.136C8.83131 15.547 8.98181 15.859 9.27901 16.078C9.58001 16.297 10.0046 16.406 10.5642 16.406C11.1199 16.406 11.6101 16.234 12.0346 15.887C12.463 15.543 12.6753 15.082 12.6753 14.504Z" fill="#250D53"/>
<path d="M24.3501 19H21.1892L17.4519 7.68903H20.6128L22.7565 14.522L24.8926 7.685H27.8463L29.99 14.518L32.1299 7.68103H35.3096L31.5836 18.996H28.4039L26.3845 12.835L24.3501 19Z" fill="#250D53"/>
<path d="M43.9283 7.45697C45.3136 7.45697 46.5263 7.98698 47.5585 9.04498C48.5907 10.105 49.1087 11.466 49.1087 13.13C49.1087 14.795 48.5789 16.186 47.5193 17.313C46.4596 18.435 45.2509 19 43.9008 19C42.5507 19 41.4283 18.454 40.5335 17.359V18.835H37.3467L37.3389 3.07098L40.5217 0V3.40198L40.5256 8.89099C41.4087 7.93699 42.539 7.45697 43.9283 7.45697ZM40.4903 13.25C40.4903 14.157 40.7493 14.899 41.2674 15.475C41.7854 16.052 42.4094 16.336 43.1473 16.336C43.8812 16.336 44.5287 16.048 45.0782 15.471C45.6315 14.895 45.9063 14.157 45.9063 13.257C45.9063 12.358 45.6355 11.601 45.0978 10.989C44.5601 10.378 43.9165 10.075 43.1669 10.075C42.4173 10.075 41.7815 10.378 41.2674 10.982C40.7493 11.585 40.4903 12.343 40.4903 13.25Z" fill="#250D53"/>
<path d="M57.3964 10.194C56.4079 10.194 55.6725 10.523 55.1864 11.177C54.7003 11.831 54.4593 12.699 54.4593 13.774L54.4634 18.596H51.1464L51.1382 7.46399H54.4552V8.93201C54.8841 8.47701 55.4152 8.09099 56.0565 7.77399C56.6979 7.45599 57.3474 7.29198 58.0133 7.27698L58.0378 10.194H57.3964Z" fill="#250D53"/>
<path d="M71.0251 13.148C71.0251 14.796 70.4477 16.181 69.2931 17.31C68.1384 18.438 66.6871 19 64.9392 19C63.1913 19 61.7401 18.438 60.5854 17.314C59.4307 16.189 58.8494 14.799 58.8494 13.152C58.8494 11.505 59.4267 10.115 60.5814 8.979C61.7361 7.847 63.1874 7.27698 64.9353 7.27698C66.6831 7.27698 68.1344 7.84298 69.2891 8.97498C70.4477 10.111 71.0251 11.501 71.0251 13.148ZM62.0841 13.156C62.0841 14.085 62.353 14.842 62.8869 15.428C63.4207 16.014 64.1048 16.302 64.9432 16.302C65.7776 16.302 66.4617 16.01 66.9955 15.424C67.5294 14.838 67.7983 14.081 67.7983 13.152C67.7983 12.223 67.5294 11.462 66.9955 10.872C66.4617 10.283 65.7736 9.98602 64.9392 9.98602C64.1048 9.98602 63.4207 10.283 62.8869 10.876C62.349 11.465 62.0841 12.227 62.0841 13.156Z" fill="#250D53"/>
<path d="M76.5466 18.596H73.4678L73.4602 3.23401H76.5391L76.5429 11.122L79.967 7.43597L83.842 7.43201L79.641 11.948L84.013 18.592L80.361 18.596L77.548 14.332L76.5429 15.389L76.5466 18.596Z" fill="#250D53"/>
<path d="M91.932 10.194C91.001 10.194 90.309 10.523 89.852 11.177C89.394 11.831 89.167 12.699 89.167 13.774L89.171 18.596H86.049L86.042 7.46399H89.164V8.93201C89.567 8.47701 90.067 8.09099 90.671 7.77399C91.274 7.45599 91.886 7.29198 92.512 7.27698L92.535 10.194H91.932Z" fill="#250D53"/>
<path d="M93.8769 18.473C93.5239 18.121 93.3469 17.689 93.3469 17.181C93.3469 16.673 93.5239 16.241 93.8769 15.889C94.2299 15.537 94.6629 15.362 95.1739 15.362C95.6839 15.362 96.1169 15.537 96.4699 15.889C96.8229 16.241 96.9999 16.673 96.9999 17.181C96.9999 17.693 96.8229 18.121 96.4699 18.473C96.1169 18.824 95.6839 19 95.1739 19C94.6629 19 94.2299 18.824 93.8769 18.473Z" fill="#250D53"/>
</svg>
