<svg width="13" height="15" viewBox="0 0 13 15" fill="none" xmlns="http://www.w3.org/2000/svg">
<path d="M3.99957 15H0.000212031C-0.0141963 13.1434 0.706223 11.3529 2.00915 10C3.3059 11.356 4.02015 13.146 3.99957 15Z" fill="#B6B2D3"/>
<path d="M13 15H3.99794C4.0186 13.1252 3.30165 11.3152 2 9.94399C2.57645 9.33617 3.27273 8.85012 4.04546 8.51592C4.81819 8.18173 5.65497 8.00618 6.50001 8C10.0868 8 13 11.1365 13 15Z" fill="#B6B2D3"/>
<path d="M6.49903 7C8.43367 7 10 5.43305 10 3.49998C10 1.56701 8.43367 0 6.49903 0C4.56633 0 3 1.56701 3 3.49998C3 5.43305 4.56633 7 6.49903 7Z" fill="#250D53"/>
</svg>
